<?xml version="1.0" encoding="UTF-8"?>
<svg version="1.1" xmlns="http://www.w3.org/2000/svg" width="1122" height="222">
<path d="M0 0 C1.50439469 -0.00067721 3.00878927 -0.00165067 4.51318359 -0.00289917 C7.63575299 -0.00435657 10.7582934 -0.00228573 13.88085938 0.00244141 C17.83025422 0.00813745 21.77958103 0.00484778 25.72897339 -0.00113106 C28.82642098 -0.00479026 31.92385314 -0.00357385 35.02130127 -0.00100327 C36.47536223 -0.00034871 37.92942472 -0.00110913 39.38348389 -0.00348282 C47.18280131 -0.01342918 54.95777003 0.12832117 62.74609375 0.54736328 C63.78662399 0.5991615 63.78662399 0.5991615 64.84817505 0.65200615 C76.78357461 1.36774546 84.5281644 5.4345815 92.625 14.1328125 C95.05611163 17.00674956 97.14493118 19.75683645 98.8125 23.1328125 C99.29783203 24.091875 99.29783203 24.091875 99.79296875 25.0703125 C101.7441451 29.90703133 101.91512966 35.00879504 102.1796875 40.1640625 C102.24275589 41.39074646 102.24275589 41.39074646 102.30709839 42.64221191 C102.81338231 53.71007396 102.77406292 64.78621936 102.75537109 75.86328125 C102.75004818 79.59900038 102.75532871 83.33459718 102.76171875 87.0703125 C102.76716663 99.33328043 102.65135289 111.59320359 102.3046875 123.8515625 C102.28270294 124.94158569 102.26071838 126.03160889 102.23806763 127.15466309 C101.84774239 138.71730186 99.04728947 148.3637797 90.9609375 156.88671875 C81.56953702 165.44189864 70.80167742 167.43576898 58.44628906 167.42333984 C57.47099243 167.43005707 56.4956958 167.43677429 55.49084473 167.44369507 C52.29071857 167.46257524 49.09080327 167.46659428 45.890625 167.46875 C43.64776527 167.47518505 41.40490636 167.48191393 39.16204834 167.48892212 C34.46836401 167.50087011 29.77475314 167.50460551 25.08105469 167.50341797 C19.09512173 167.50321497 13.10966453 167.5305088 7.12384415 167.56496239 C2.49271522 167.58730557 -2.13830056 167.59125323 -6.76947784 167.59019852 C-8.97487272 167.59254363 -11.18027124 167.60130498 -13.38561249 167.61686325 C-42.15312016 167.80081119 -42.15312016 167.80081119 -53.4453125 158.0390625 C-62.03775895 149.55097775 -66.11766156 139.2153485 -66.50198364 127.14448547 C-66.50787928 125.61236668 -66.50835031 124.08022073 -66.50439453 122.5480957 C-66.50614685 121.70657455 -66.50789917 120.86505341 -66.50970459 119.99803162 C-66.51409162 117.2265311 -66.51119486 114.45509488 -66.5078125 111.68359375 C-66.50848676 109.74553922 -66.5094578 107.80748478 -66.51071167 105.86943054 C-66.51218465 101.80853469 -66.51004809 97.74766086 -66.50537109 93.68676758 C-66.49969312 88.50673052 -66.50294308 83.32674551 -66.50894356 78.1467104 C-66.51257625 74.14275224 -66.51139786 70.13880618 -66.50881577 66.13484764 C-66.50815298 64.22646262 -66.50895201 62.31807646 -66.51129532 60.40969276 C-66.54570234 24.49318813 -66.54570234 24.49318813 -52.87109375 10.60546875 C-45.18860548 3.71844248 -35.59712282 0.96251518 -25.4609375 0.51611328 C-24.72273773 0.47851458 -23.98453796 0.44091587 -23.22396851 0.40217781 C-15.48433197 0.03742232 -7.74691481 -0.0126465 0 0 Z " fill="#5333E6" transform="translate(90.375,27.8671875)"/>
<path d="M0 0 C6.56551371 0.37268013 12.84899367 0.62617747 19.37744141 -0.25097656 C24.67544145 -0.91144589 30.04994111 -0.59498433 35.375 -0.5 C36.39722656 -0.54125 37.41945313 -0.5825 38.47265625 -0.625 C42.664081 -0.625 45.29348605 -0.53766879 48.3984375 2.44140625 C50.26457276 5.04503164 51.82852452 7.69557059 53.375 10.5 C54.51968985 12.33404751 55.66546803 14.16741636 56.8125 16 C59.375 20.22845953 59.375 20.22845953 59.375 22.5 C63.36276696 19.02208453 65.53532946 14.96750278 68 10.375 C68.78083734 8.93325785 69.56456865 7.49307828 70.3515625 6.0546875 C70.69268066 5.42030762 71.03379883 4.78592773 71.38525391 4.13232422 C72.375 2.5 72.375 2.5 74.375 0.5 C76.88420846 0.32504394 79.28124941 0.26830431 81.7890625 0.3046875 C82.51870209 0.3075174 83.24834167 0.31034729 84.00009155 0.31326294 C86.33356028 0.32446998 88.66664703 0.3495749 91 0.375 C92.58072363 0.38502915 94.16145327 0.39415511 95.7421875 0.40234375 C99.61993914 0.42441095 103.49740478 0.45894385 107.375 0.5 C107.705 1.16 108.035 1.82 108.375 2.5 C108.00963135 3.0355249 107.6442627 3.5710498 107.26782227 4.12280273 C106.74760498 4.88536377 106.2273877 5.6479248 105.69140625 6.43359375 C105.10117676 7.29670166 104.51094727 8.15980957 103.90283203 9.04907227 C102.57121867 11.00613037 101.24821832 12.96907174 99.93310547 14.93725586 C96.33914901 20.28962698 92.6569449 25.47214525 88.62890625 30.5078125 C76.05328998 46.69069331 73.78964926 58.32102951 75.375 78.5 C71.94332792 79.56900846 68.91065687 79.55144089 65.33203125 79.4140625 C64.17638672 79.37023437 63.02074219 79.32640625 61.83007812 79.28125 C60.02700195 79.20390625 60.02700195 79.20390625 58.1875 79.125 C56.36702148 79.05925781 56.36702148 79.05925781 54.50976562 78.9921875 C45.5043504 78.6293504 45.5043504 78.6293504 44.375 77.5 C44.41285588 75.70555496 44.50608106 73.91224928 44.62109375 72.12109375 C45.2961535 53.46777944 41.01219971 42.77337114 29.50537109 28.27099609 C26.51434257 24.38053382 23.84712781 20.30033749 21.17016602 16.18994141 C19.05318763 13.01778475 16.77520509 10.00983301 14.40625 7.0234375 C13.375 5.5 13.375 5.5 13.375 3.5 C9.35828506 4.02352689 7.78395161 5.87654769 5.1875 8.875 C4.40117187 9.77992187 3.61484375 10.68484375 2.8046875 11.6171875 C-3.81083441 19.46647234 -10.23175069 27.46924269 -16.625 35.5 C-13.52766134 41.22931364 -9.9055335 46.35794519 -6 51.5625 C-4.75461783 53.2404473 -3.50983118 54.91883676 -2.265625 56.59765625 C-1.65267578 57.42281738 -1.03972656 58.24797852 -0.40820312 59.09814453 C2.15857194 62.55541905 4.7171993 66.01774964 7.25 69.5 C7.88349365 70.35283569 7.88349365 70.35283569 8.52978516 71.22290039 C11.375 75.15606257 11.375 75.15606257 11.375 78.5 C6.64292995 78.6737205 1.91273432 78.80037162 -2.82177734 78.88452148 C-4.4301793 78.9196133 -6.03835968 78.96730247 -7.64599609 79.02807617 C-20.91817315 79.51705112 -20.91817315 79.51705112 -24.86083984 77.16772461 C-26.4316801 75.36462694 -27.50481759 73.60850306 -28.625 71.5 C-29.53421484 70.26337023 -30.45881808 69.03790741 -31.3984375 67.82421875 C-32.26905977 66.61444363 -33.13626828 65.40220428 -34 64.1875 C-34.44988281 63.56810547 -34.89976562 62.94871094 -35.36328125 62.31054688 C-38.625 57.74513203 -38.625 57.74513203 -38.625 55.5 C-42.91401804 58.19988563 -42.91401804 58.19988563 -45.19775391 62.49023438 C-45.40235953 64.75866597 -45.45862266 66.97259354 -45.4375 69.25 C-45.56612091 77.44112091 -45.56612091 77.44112091 -46.625 78.5 C-48.69762076 78.58767112 -50.77320294 78.60695873 -52.84765625 78.59765625 C-54.73774414 78.59282227 -54.73774414 78.59282227 -56.66601562 78.58789062 C-58.00651109 78.57953403 -59.34700588 78.57106907 -60.6875 78.5625 C-62.03189942 78.5574866 -63.3763006 78.55292342 -64.72070312 78.54882812 C-68.02217941 78.53699488 -71.32356803 78.52050971 -74.625 78.5 C-76.34492255 74.02120879 -76.87358856 70.31954587 -76.86791992 65.5324707 C-76.86981827 64.86341705 -76.87171661 64.1943634 -76.87367249 63.5050354 C-76.87735244 61.31182832 -76.86671844 59.11895847 -76.85546875 56.92578125 C-76.85427554 55.3945469 -76.85382409 53.86331182 -76.8540802 52.33207703 C-76.85252029 49.1320636 -76.84426635 45.93216283 -76.83081055 42.73217773 C-76.81377827 38.62974443 -76.80999774 34.52743421 -76.81075573 30.42496967 C-76.81048398 27.26715418 -76.8050026 24.10936561 -76.79775429 20.95155907 C-76.79457256 19.43848054 -76.79260137 17.92539897 -76.79186058 16.41231728 C-76.78969419 14.3012737 -76.78094478 12.19036115 -76.77026367 10.0793457 C-76.76645187 8.87832718 -76.76264008 7.67730865 -76.75871277 6.43989563 C-76.625 3.5 -76.625 3.5 -75.625 0.5 C-71.5132744 0.47534254 -67.40157722 0.45716041 -63.28979492 0.44506836 C-61.89004772 0.4400292 -60.4903058 0.43319784 -59.09057617 0.42456055 C-57.08254223 0.4124768 -55.07447043 0.40730193 -53.06640625 0.40234375 C-51.25184937 0.39448853 -51.25184937 0.39448853 -49.40063477 0.38647461 C-46.625 0.5 -46.625 0.5 -45.625 1.5 C-45.46735595 3.27869726 -45.37399323 5.06318476 -45.30859375 6.84765625 C-45.26669922 7.92724609 -45.22480469 9.00683594 -45.18164062 10.11914062 C-45.14232422 11.25544922 -45.10300781 12.39175781 -45.0625 13.5625 C-45.01931641 14.70267578 -44.97613281 15.84285156 -44.93164062 17.01757812 C-44.82517161 19.84492195 -44.72315793 22.67235738 -44.625 25.5 C-40.30514536 20.55638326 -36.25203667 15.47804438 -32.32617188 10.21875 C-31.11944289 8.62502894 -29.87258142 7.06194822 -28.625 5.5 C-27.92503906 4.56414062 -27.22507812 3.62828125 -26.50390625 2.6640625 C-19.45195483 -2.63686164 -8.37241123 -0.47871451 0 0 Z " fill="#FAFAFA" transform="translate(409.625,77.5)"/>
<path d="M0 0 C8.17179803 -0.09310726 16.34337058 -0.16396947 24.51556969 -0.20724869 C28.3111903 -0.22803153 32.10644524 -0.25617593 35.90185547 -0.30175781 C39.57179937 -0.34555183 43.24139388 -0.36920687 46.91157913 -0.37950897 C48.30449541 -0.38684076 49.69739483 -0.40115646 51.09016037 -0.42292023 C60.89752702 -0.56993298 69.04050912 0.09571994 76.9375 6.3125 C80.67266274 11.17953024 82.55475575 15.72958122 82.2890625 21.94921875 C81.49376458 27.59153506 79.60176833 32.43734065 75 36 C74.34 36 73.68 36 73 36 C73 36.99 73 37.98 73 39 C74.0828125 39.2784375 74.0828125 39.2784375 75.1875 39.5625 C79.8618571 41.95161585 82.36393917 46.09181752 84 51 C84.66374889 58.18635819 84.29806286 64.95987299 79.59375 70.72265625 C71.23700647 78.74434167 60.18132532 78.43364221 49.27734375 78.328125 C47.88155827 78.32506064 46.48576972 78.32318967 45.08998108 78.32244873 C42.18787646 78.31788015 39.2860547 78.30357727 36.3840332 78.28125 C32.65816517 78.25273152 28.93251651 78.24201104 25.20654964 78.2375679 C22.33533022 78.23342422 19.46415527 78.22361947 16.59295845 78.21169281 C15.21778277 78.20598882 13.84260283 78.20123054 12.46742058 78.19742584 C10.55760001 78.19058834 8.64781156 78.17606277 6.73803711 78.16113281 C5.65123154 78.15430481 4.56442596 78.14747681 3.44468689 78.14044189 C1 78 1 78 0 77 C-0.09496708 74.59651714 -0.12558862 72.22189018 -0.11352539 69.81811523 C-0.11367142 69.06694427 -0.11381744 68.31577332 -0.1139679 67.5418396 C-0.11326863 65.04739541 -0.10547564 62.55302497 -0.09765625 60.05859375 C-0.09579212 58.33366436 -0.09436819 56.60873443 -0.09336853 54.88380432 C-0.08954297 50.33487497 -0.07971238 45.78597733 -0.06866455 41.23706055 C-0.05845124 36.59879994 -0.05387108 31.96053423 -0.04882812 27.32226562 C-0.03809014 18.21482978 -0.02101327 9.10741752 0 0 Z M31 21 C30.92820036 22.51928038 30.91607993 24.04167482 30.9375 25.5625 C30.94652344 26.38878906 30.95554687 27.21507812 30.96484375 28.06640625 C30.97644531 28.70449219 30.98804688 29.34257813 31 30 C33.77141717 30.08089542 36.54047819 30.14044062 39.3125 30.1875 C40.49102539 30.22520508 40.49102539 30.22520508 41.69335938 30.26367188 C42.45068359 30.27333984 43.20800781 30.28300781 43.98828125 30.29296875 C44.68477783 30.3086792 45.38127441 30.32438965 46.09887695 30.34057617 C48.61259262 29.89025726 49.50558343 29.04269567 51 27 C50.76716851 23.85078091 50.76716851 23.85078091 50 21 C46.40523628 19.80174543 43.11450601 19.85391256 39.375 19.875 C38.68148437 19.87113281 37.98796875 19.86726563 37.2734375 19.86328125 C33.84929579 19.56545834 33.84929579 19.56545834 31 21 Z M31 48 C30.97310784 49.47906892 30.95365379 50.95827483 30.9375 52.4375 C30.92589844 53.26121094 30.91429687 54.08492187 30.90234375 54.93359375 C30.76732652 56.99163938 30.76732652 56.99163938 32 58 C34.78437239 58.15386542 37.52683231 58.2316883 40.3125 58.25 C41.08529297 58.270625 41.85808594 58.29125 42.65429688 58.3125 C47.32513563 58.34963947 47.32513563 58.34963947 51.54296875 56.484375 C52.02378906 55.99453125 52.50460937 55.5046875 53 55 C52.65772428 52.02934491 52.65772428 52.02934491 52 49 C49.65147472 47.82573736 48.26225935 47.88491827 45.6484375 47.90234375 C44.37226562 47.90717773 44.37226562 47.90717773 43.0703125 47.91210938 C42.18085937 47.92048828 41.29140625 47.92886719 40.375 47.9375 C39.02921875 47.94426758 39.02921875 47.94426758 37.65625 47.95117188 C35.43743352 47.96297409 33.21874982 47.97943845 31 48 Z " fill="#FBFAFB" transform="translate(523,78)"/>
<path d="M0 0 C8.68534165 6.18992632 13.07495329 13.55935171 15.703125 23.88671875 C17.5545741 36.23588422 16.6597523 49.46527003 9.28125 59.9296875 C1.96993878 68.61186957 -6.63807882 73.57474095 -17.90625 75.4921875 C-21.99324268 75.79445132 -26.05945754 75.81701239 -30.15625 75.8046875 C-31.21199219 75.82080078 -32.26773438 75.83691406 -33.35546875 75.85351562 C-44.57530481 75.86038211 -54.46682146 73.67462314 -63.90625 67.4921875 C-65.2365625 66.6259375 -65.2365625 66.6259375 -66.59375 65.7421875 C-74.79022186 57.7672419 -77.93880231 48.73732051 -78.25756836 37.51831055 C-78.37452994 25.04200627 -76.54514819 14.95053129 -68.0390625 5.39453125 C-51.89864649 -10.42071155 -18.86216962 -11.54966183 0 0 Z M-41.90625 20.4921875 C-45.73030902 24.98595913 -46.53588287 28.74513015 -46.40625 34.4921875 C-46.42171875 35.17796875 -46.4371875 35.86375 -46.453125 36.5703125 C-46.41426711 41.66069626 -45.18469876 44.63957959 -41.90625 48.4921875 C-37.0995211 51.4975419 -31.50000646 52.01994204 -25.984375 51.1328125 C-22.33875735 50.00897548 -20.51300084 48.2896762 -17.90625 45.4921875 C-15.03410497 39.75776735 -15.25986246 33.75899353 -15.90625 27.4921875 C-16.90595413 24.75588393 -17.84455634 23.66841969 -19.90625 21.4921875 C-20.463125 20.8940625 -21.02 20.2959375 -21.59375 19.6796875 C-27.92730067 16.42732364 -35.84498295 16.70244692 -41.90625 20.4921875 Z " fill="#FBFAFB" transform="translate(689.90625,82.5078125)"/>
<path d="M0 0 C1.11117187 0.00563965 2.22234375 0.0112793 3.3671875 0.01708984 C15.23927029 0.19280502 25.45212962 1.30958593 34.8125 9.3125 C40.30211824 15.08363713 40.90589557 19.67741182 40.8125 27.3125 C36.63169399 27.43653121 32.45187498 27.52703601 28.26977539 27.5871582 C26.84868709 27.61223147 25.42772687 27.64629999 24.00708008 27.68969727 C21.95882538 27.75067858 19.91228117 27.77877762 17.86328125 27.80078125 C16.01730347 27.84005737 16.01730347 27.84005737 14.1340332 27.88012695 C9.9218972 27.16030217 8.59572443 25.44645596 5.8125 22.3125 C3.22661732 21.67874034 3.22661732 21.67874034 0.625 21.9375 C-0.23480469 21.97101563 -1.09460938 22.00453125 -1.98046875 22.0390625 C-4.22583003 22.19256204 -4.22583003 22.19256204 -6.1875 23.3125 C-6.83963292 25.33713255 -6.83963292 25.33713255 -7.1875 27.3125 C-6.52854736 27.41272461 -5.86959473 27.51294922 -5.19067383 27.61621094 C32.50505824 33.42213702 32.50505824 33.42213702 39.1484375 42.046875 C43.09908236 48.60326435 43.97241785 55.46596426 42.19921875 62.875 C39.60161526 70.38173079 35.35012706 75.04713976 28.24609375 78.59375 C19.70133831 82.15937075 11.99708079 82.5226104 2.8125 82.5625 C1.65621094 82.583125 0.49992187 82.60375 -0.69140625 82.625 C-13.09861742 82.68045122 -24.32857335 81.02862971 -33.93359375 72.8203125 C-38.60208326 68.14062758 -39.83139995 62.81941917 -40.1875 56.3125 C-39.8575 55.6525 -39.5275 54.9925 -39.1875 54.3125 C-35.13093719 54.1886384 -31.07511022 54.09804267 -27.01708984 54.0378418 C-25.63766298 54.0127407 -24.25836858 53.97865127 -22.87939453 53.93530273 C-20.89414128 53.87447125 -18.90790641 53.84892063 -16.921875 53.82421875 C-15.13088379 53.78494263 -15.13088379 53.78494263 -13.30371094 53.74487305 C-10.1875 54.3125 -10.1875 54.3125 -7.89160156 56.78051758 C-7.04807129 58.03384888 -7.04807129 58.03384888 -6.1875 59.3125 C-3.30334117 60.75457941 -0.77028472 60.40644887 2.4375 60.375 C4.22027344 60.36146484 4.22027344 60.36146484 6.0390625 60.34765625 C6.95429688 60.33605469 7.86953125 60.32445312 8.8125 60.3125 C9.4725 58.6625 10.1325 57.0125 10.8125 55.3125 C10.11801758 55.21227539 9.42353516 55.11205078 8.70800781 55.00878906 C5.49107948 54.53794094 2.27689942 54.0503024 -0.9375 53.5625 C-2.02933594 53.40523437 -3.12117188 53.24796875 -4.24609375 53.0859375 C-15.63202529 51.33425573 -26.73990638 49.00771151 -34.9375 40.4375 C-39.27179261 34.41764915 -40.03979073 28.56762485 -39.1875 21.3125 C-37.4799457 14.62781298 -35.12673191 10.1225733 -29.1875 6.3125 C-19.60433526 1.24533497 -10.72697929 -0.05633918 0 0 Z " fill="#FBFAFA" transform="translate(284.1875,75.6875)"/>
<path d="M0 0 C-0.667597 4.60926014 -1.7804237 8.98816507 -3.125 13.4375 C-3.33874268 14.15687744 -3.55248535 14.87625488 -3.77270508 15.61743164 C-5.09358591 20.04506145 -6.44937496 24.46142131 -7.81640625 28.875 C-8.12626465 29.87990479 -8.43612305 30.88480957 -8.75537109 31.92016602 C-9.36174727 33.88302699 -9.97251818 35.84453753 -10.58837891 37.80444336 C-10.87245605 38.72362549 -11.1565332 39.64280762 -11.44921875 40.58984375 C-11.70018311 41.39284912 -11.95114746 42.19585449 -12.2097168 43.02319336 C-13.34499914 47.29952872 -14.13229059 51.66145295 -15 56 C-2.46 56 10.08 56 23 56 C21.84399152 60.62403394 19.69967764 62.81224921 16.5 66.125 C15.39921719 67.28987116 14.29896121 68.45524036 13.19921875 69.62109375 C12.65442871 70.19456543 12.10963867 70.76803711 11.54833984 71.35888672 C9.43218324 73.60183921 7.3694547 75.89026387 5.3125 78.1875 C4.59707031 78.98542969 3.88164062 79.78335938 3.14453125 80.60546875 C2.43683594 81.39566406 1.72914063 82.18585938 1 83 C-1.25303941 85.50468779 -3.50738233 88.00819834 -5.76171875 90.51171875 C-7.22439255 92.13776274 -8.68540333 93.76530462 -10.14453125 95.39453125 C-14.43152185 100.17587753 -18.76083363 104.91424557 -23.125 109.625 C-28.0893558 114.98706354 -33.05248225 120.35401833 -37.6484375 126.0390625 C-38.44121094 127.00972656 -38.44121094 127.00972656 -39.25 128 C-39.70890625 128.5775 -40.1678125 129.155 -40.640625 129.75 C-42 131 -42 131 -45 131 C-44.44850685 124.32827798 -43.1352546 118.37397801 -41.125 112 C-40.86847656 111.16210938 -40.61195312 110.32421875 -40.34765625 109.4609375 C-39.15833908 105.60013905 -37.92384827 101.76008004 -36.6171875 97.9375 C-34.23979703 90.67899382 -32.1551652 83.32756169 -30 76 C-42.54 76 -55.08 76 -68 76 C-66.88032315 71.52129259 -65.63405424 70.22148585 -62.5 66.9375 C-59.05597308 63.27183388 -55.76854079 59.55730468 -52.625 55.625 C-48.75716454 50.82779065 -44.64890505 46.32795793 -40.43969727 41.83422852 C-37.34249154 38.50880245 -34.40392933 35.11298325 -31.5625 31.5625 C-26.98715207 25.86206652 -22.02635805 20.57151689 -17.02734375 15.24609375 C-14.60981643 12.66744767 -12.25160839 10.04742195 -9.9375 7.375 C-3.527897 0 -3.527897 0 0 0 Z " fill="#FBF9FC" transform="translate(131,47)"/>
<path d="M0 0 C0.70706085 0.00359528 1.4141217 0.00719055 2.14260864 0.01089478 C3.25473473 0.01067574 3.25473473 0.01067574 4.389328 0.01045227 C6.85130696 0.01115152 9.31321119 0.01894442 11.775177 0.02676392 C13.47768614 0.02862806 15.18019582 0.03005198 16.88270569 0.03105164 C21.37245148 0.03487714 25.86216513 0.0447077 30.35189819 0.05575562 C34.92983566 0.06596903 39.50777831 0.07054911 44.08572388 0.07559204 C53.07467259 0.08632995 62.06358898 0.103927 71.05252075 0.12442017 C71.05252075 7.71442017 71.05252075 15.30442017 71.05252075 23.12442017 C68.59976934 24.35079587 67.00194265 24.23857331 64.26345825 24.22207642 C63.32244263 24.21885376 62.381427 24.2156311 61.41189575 24.21231079 C59.93463013 24.19974243 59.93463013 24.19974243 58.42752075 24.18692017 C57.43494263 24.18240845 56.4423645 24.17789673 55.41970825 24.17324829 C52.96391915 24.16144161 50.50824971 24.14497417 48.05252075 24.12442017 C48.05474136 24.7714389 48.05696198 25.41845764 48.05924988 26.08508301 C48.08132043 32.80050099 48.0964348 39.51590873 48.10745239 46.23135376 C48.11249078 48.73982156 48.11932159 51.2482864 48.12796021 53.75674438 C48.14004736 57.35587287 48.1457539 60.95496264 48.150177 64.55410767 C48.15533829 65.68122162 48.16049957 66.80833557 48.16581726 67.96960449 C48.16589279 69.01053253 48.16596832 70.05146057 48.16604614 71.12393188 C48.16826675 72.04326508 48.17048737 72.96259827 48.17277527 73.90979004 C48.05252075 76.12442017 48.05252075 76.12442017 47.05252075 78.12442017 C42.94079515 78.14907762 38.82909798 78.16725975 34.71731567 78.17935181 C33.31756847 78.18439096 31.91782655 78.19122233 30.51809692 78.19985962 C28.51006299 78.21194336 26.50199118 78.21711823 24.493927 78.22207642 C23.28422241 78.22731323 22.07451782 78.23255005 20.82815552 78.23794556 C18.05252075 78.12442017 18.05252075 78.12442017 17.05252075 77.12442017 C16.92970123 75.49862799 16.87469572 73.86765013 16.84719849 72.23745728 C16.82725327 71.1964537 16.80730804 70.15545013 16.78675842 69.082901 C16.77004593 67.95062576 16.75333344 66.81835052 16.7361145 65.65176392 C16.7153334 64.49898453 16.69455231 63.34620514 16.67314148 62.15849304 C16.60752111 58.4596986 16.5487032 54.76083057 16.49002075 51.06192017 C16.4468474 48.56126138 16.40323351 46.06061015 16.35916138 43.55996704 C16.25182707 37.41486355 16.15008433 31.26968613 16.05252075 25.12442017 C15.42160522 25.09936401 14.7906897 25.07430786 14.14065552 25.04849243 C11.2985525 24.9328788 8.45680993 24.80999701 5.61502075 24.68692017 C4.6217981 24.64760376 3.62857544 24.60828735 2.60525513 24.56777954 C1.66101685 24.52588501 0.71677856 24.48399048 -0.256073 24.44082642 C-1.13062134 24.4041687 -2.00516968 24.36751099 -2.90621948 24.32974243 C-4.94747925 24.12442017 -4.94747925 24.12442017 -5.94747925 23.12442017 C-6.04664495 21.50184472 -6.07827702 19.87502185 -6.08029175 18.24942017 C-6.08158081 17.26457642 -6.08286987 16.27973267 -6.084198 15.26504517 C-6.08033081 14.22863892 -6.07646362 13.19223267 -6.07247925 12.12442017 C-6.07828003 10.56981079 -6.07828003 10.56981079 -6.084198 8.98379517 C-6.08290894 7.99895142 -6.08161987 7.01410767 -6.08029175 5.99942017 C-6.07916382 5.08934204 -6.07803589 4.17926392 -6.07687378 3.24160767 C-5.82710861 -0.84511593 -3.54604593 0.00760649 0 0 Z " fill="#FAFAFA" transform="translate(775.9474792480469,77.87557983398438)"/>
<path d="M0 0 C1 1 1 1 1.12025452 3.09437561 C1.11803391 4.01592941 1.11581329 4.93748322 1.11352539 5.88696289 C1.11344986 6.92796646 1.11337433 7.96897003 1.11329651 9.04151917 C1.10813522 10.1737944 1.10297394 11.30606964 1.09765625 12.47265625 C1.0962413 13.62543564 1.09482635 14.77821503 1.09336853 15.96592712 C1.08775005 19.66481064 1.07519442 23.36363464 1.0625 27.0625 C1.05748738 29.56315017 1.05292406 32.06380129 1.04882812 34.56445312 C1.03777462 40.70965588 1.02101852 46.85482369 1 53 C1.9286084 53.02505615 2.8572168 53.0501123 3.81396484 53.07592773 C7.25435804 53.17097932 10.69457713 53.27021707 14.13476562 53.37231445 C15.62462641 53.41566589 17.11453695 53.45734084 18.60449219 53.49731445 C20.74429327 53.55501215 22.88384385 53.61870755 25.0234375 53.68359375 C26.95582275 53.73858032 26.95582275 53.73858032 28.92724609 53.79467773 C32 54 32 54 34 55 C34.02887512 58.64581687 34.04675585 62.29160463 34.0625 65.9375 C34.07087891 66.97841797 34.07925781 68.01933594 34.08789062 69.09179688 C34.09111328 70.08115234 34.09433594 71.07050781 34.09765625 72.08984375 C34.10289307 73.00628662 34.10812988 73.92272949 34.11352539 74.86694336 C34 77 34 77 33 78 C31.04175302 78.09925773 29.07990103 78.12799414 27.11914062 78.12939453 C25.2321344 78.13412277 25.2321344 78.13412277 23.30700684 78.13894653 C21.92342087 78.13715675 20.53983522 78.1351058 19.15625 78.1328125 C17.74759911 78.13348559 16.33894834 78.13445565 14.93029785 78.13571167 C11.97451677 78.13718842 9.01876586 78.13503483 6.06298828 78.13037109 C2.26625416 78.12467381 -1.53040928 78.12795293 -5.32714081 78.13394356 C-8.23696428 78.13754979 -11.14677088 78.1364103 -14.05659485 78.13381577 C-15.456894 78.13314667 -16.85719467 78.13397432 -18.25749207 78.13629532 C-20.21137464 78.13882283 -22.16526255 78.13429033 -24.11914062 78.12939453 C-25.23309204 78.12859894 -26.34704346 78.12780334 -27.49475098 78.12698364 C-30 78 -30 78 -31 77 C-31.10025695 74.63238425 -31.13618935 72.29392927 -31.12939453 69.92578125 C-31.13114685 69.18597015 -31.13289917 68.44615906 -31.13470459 67.68392944 C-31.1391231 65.22676277 -31.13618513 62.76966747 -31.1328125 60.3125 C-31.13348554 58.61238593 -31.13445557 56.91227195 -31.13571167 55.2121582 C-31.13718864 51.64435919 -31.13503411 48.07658517 -31.13037109 44.50878906 C-31.1246738 39.92511506 -31.12795281 35.34149961 -31.13394356 30.75782776 C-31.13754919 27.24580439 -31.13641057 23.73379502 -31.13381577 20.22177124 C-31.1331465 18.53119907 -31.13397489 16.84062564 -31.13629532 15.15005493 C-31.13882189 12.79140843 -31.13498121 10.43285805 -31.12939453 8.07421875 C-31.13141876 7.36872894 -31.13344299 6.66323914 -31.13552856 5.93637085 C-31.11426271 1.11426271 -31.11426271 1.11426271 -30 0 C-20.10345886 -1.64942352 -9.89825742 -1.43684382 0 0 Z " fill="#FAF9F9" transform="translate(744,78)"/>
<path d="M0 0 C2.97 0 5.94 0 9 0 C9.33 8.58 9.66 17.16 10 26 C12.64 24.35 15.28 22.7 18 21 C24.15981583 18.94672806 31.13852613 19.25418738 37.1171875 21.83203125 C42.54380187 25.19833353 46.59775522 30.6082995 48.5 36.68359375 C50.7120695 46.93169697 50.72227723 56.93692116 45.7421875 66.38671875 C42.46258859 71.23443189 38.70386702 74.47388173 33 76 C25.22804246 77.00553629 19.62387142 76.17058571 13 72 C12.34 71.34 11.68 70.68 11 70 C10.34 71.65 9.68 73.3 9 75 C6.03 75 3.06 75 0 75 C-1.15768252 71.52695243 -1.12706497 68.82258351 -1.12939453 65.15771484 C-1.13114685 64.46637955 -1.13289917 63.77504425 -1.13470459 63.0627594 C-1.13910429 60.7787932 -1.13619238 58.49490448 -1.1328125 56.2109375 C-1.13348593 54.62578313 -1.13445628 53.04062887 -1.13571167 51.45547485 C-1.13718596 48.1350201 -1.13504212 44.81459225 -1.13037109 41.49414062 C-1.12466466 37.22888748 -1.12796027 32.96369713 -1.13394356 28.69844627 C-1.13754849 25.42662071 -1.13641106 22.15481016 -1.13381577 18.88298416 C-1.13314679 17.30963763 -1.13397391 15.73628975 -1.13629532 14.16294479 C-1.13882173 11.96975819 -1.13498188 9.77667496 -1.12939453 7.58349609 C-1.12859894 6.33345795 -1.12780334 5.0834198 -1.12698364 3.79550171 C-1 1 -1 1 0 0 Z M13 33 C8.37347532 39.22187802 8.43349433 46.52002701 9 54 C9.91913957 58.61906581 11.47858392 61.41651058 14.625 64.9375 C18.8462966 67.51718126 22.06990529 68.40041378 27 68 C31.55827333 66.84234328 34.96454558 64.76224541 37.5 60.75 C39.26660093 56.58867337 39.38050866 52.33864296 39.4375 47.875 C39.4478125 47.19405273 39.458125 46.51310547 39.46875 45.81152344 C39.36737751 40.02484362 37.76173668 36.03700804 34 31.6875 C30.2186527 28.49698821 26.23734167 28.66359514 21.5078125 28.71875 C17.79270942 29.13539707 15.74527801 30.52255399 13 33 Z " fill="#F5F3F4" transform="translate(1001,81)"/>
<path d="M0 0 C2.4375 1.6875 2.4375 1.6875 4 3 C4.66 1.35 5.32 -0.3 6 -2 C12.15234375 -2.09765625 12.15234375 -2.09765625 14 -2 C15 -1 15 -1 15.12025452 1.13233948 C15.11803391 2.07165817 15.11581329 3.01097687 15.11352539 3.97875977 C15.11344986 5.03978409 15.11337433 6.10080841 15.11329651 7.19398499 C15.10813522 8.348134 15.10297394 9.50228302 15.09765625 10.69140625 C15.0962413 11.86638168 15.09482635 13.04135712 15.09336853 14.25193787 C15.08774992 18.02215064 15.07519426 21.79230504 15.0625 25.5625 C15.0574874 28.11132727 15.05292408 30.66015547 15.04882812 33.20898438 C15.03777444 39.47267633 15.02101821 45.73633399 15 52 C13.52093108 52.02689216 12.04172517 52.04634621 10.5625 52.0625 C9.73878906 52.07410156 8.91507813 52.08570313 8.06640625 52.09765625 C6 52 6 52 5 51 C4.95936168 49.33382885 4.957279 47.66611905 5 46 C4.18595703 46.63228516 4.18595703 46.63228516 3.35546875 47.27734375 C2.64003906 47.82519531 1.92460938 48.37304688 1.1875 48.9375 C0.47980469 49.48277344 -0.22789062 50.02804688 -0.95703125 50.58984375 C-6.02063148 54.08498655 -12.10708209 53.62370299 -18 53 C-24.08414716 51.13117794 -28.56102228 48.28373439 -32.0625 42.94140625 C-34.76678902 37.34127441 -35.38783101 32.3697514 -35.375 26.25 C-35.37338867 25.45376221 -35.37177734 24.65752441 -35.37011719 23.8371582 C-35.1965511 15.48811878 -33.15656456 7.98066272 -27 2 C-18.34140673 -3.96165438 -9.31596869 -4.93198342 0 0 Z M-20 9 C-25.13574473 15.8147382 -25.61720154 22.74778676 -25 31 C-24.08245129 35.61884691 -22.52091904 38.41706678 -19.375 41.9375 C-15.1537034 44.51718126 -11.93009471 45.40041378 -7 45 C-2.44172667 43.84234328 0.96454558 41.76224541 3.5 37.75 C5.26660093 33.58867337 5.38050866 29.33864296 5.4375 24.875 C5.4478125 24.19405273 5.458125 23.51310547 5.46875 22.81152344 C5.38732401 18.16345678 4.42935517 14.94624918 2 11 C-2.68865284 6.7687767 -5.50361982 5.68385204 -11.68359375 5.79296875 C-15.12349266 6.10041334 -17.19922685 6.98083796 -20 9 Z " fill="#F4F3F4" transform="translate(972,104)"/>
<path d="M0 0 C3.1513267 2.68390503 4.80345802 5.25594821 5.875 9.3125 C5.91625 10.199375 5.9575 11.08625 6 12 C5 13 5 13 1.6875 13.4375 C0.470625 13.293125 -0.74625 13.14875 -2 13 C-2.598125 12.05125 -3.19625 11.1025 -3.8125 10.125 C-6.25252346 6.6392522 -6.85387794 6.39426703 -10.8125 5.5 C-15.47676546 4.8100199 -18.6720104 5.1583023 -23 7 C-24.43060128 9.86120256 -24.38692581 11.84010585 -24 15 C-19.39241243 18.62475578 -13.93113745 19.28142476 -8.32617188 20.37304688 C-2.32709747 21.64751691 2.33848265 23.50772398 5.875 28.8125 C7.67961226 33.92556806 7.46785328 37.54719244 5.8125 42.6875 C3.38271659 47.12813864 0.97764226 49.20551366 -3.703125 51.0859375 C-10.50773831 52.9725246 -19.4305225 53.4134449 -26.125 50.8125 C-30.37165868 48.13525866 -33.22612834 45.1608075 -36 41 C-36.125 37.8125 -36.125 37.8125 -36 35 C-30.80342524 34.38345723 -30.80342524 34.38345723 -28 35 C-26.671875 36.48828125 -26.671875 36.48828125 -25.5625 38.375 C-23.64141675 41.55316793 -22.31085995 42.64120199 -18.6875 43.5625 C-13.96268124 44.28939519 -10.47167957 43.64746089 -6 42 C-3.43312633 38.1496895 -4.16711276 36.41430237 -5 32 C-11.01529286 29.8946475 -16.98060854 28.22653144 -23.203125 26.84375 C-26.94542362 25.7147884 -29.9063406 24.35027222 -32.3984375 21.2734375 C-34.71293274 16.77405875 -35.60911717 13.21278555 -34.73046875 8.17578125 C-33.18227586 3.564319 -30.32870969 0.42874983 -26.2109375 -2.09765625 C-17.61655111 -5.89969961 -7.83290884 -5.09610937 0 0 Z " fill="#F6F5F5" transform="translate(1093,105)"/>
<path d="M0 0 C0.721875 0.00257812 1.44375 0.00515625 2.1875 0.0078125 C2.909375 0.00523438 3.63125 0.00265625 4.375 0 C6.1875 0.1328125 6.1875 0.1328125 7.1875 1.1328125 C7.28159479 3.15775481 7.30493122 5.1860112 7.30102539 7.21313477 C7.30094986 8.51440811 7.30087433 9.81568146 7.30079651 11.15638733 C7.29568909 12.58733152 7.29047308 14.01827532 7.28515625 15.44921875 C7.28329203 16.9051051 7.28186815 18.36099207 7.28086853 19.81687927 C7.27704365 23.65560629 7.26721364 27.49429569 7.25616455 31.33300781 C7.24415498 35.93517021 7.23954804 40.53734516 7.23371124 45.13951874 C7.22400185 52.13730952 7.20484513 59.1350177 7.1875 66.1328125 C18.0775 66.1328125 28.9675 66.1328125 40.1875 66.1328125 C42.27704032 70.31189314 42.35302619 70.93691823 41.1875 75.1328125 C35.24283775 75.30019828 29.29804603 75.46078134 23.35302734 75.61499023 C21.32953921 75.66844516 19.30609977 75.72377716 17.28271484 75.78100586 C14.37868757 75.86281946 11.47455356 75.93793812 8.5703125 76.01171875 C7.66193634 76.03875381 6.75356018 76.06578888 5.81765747 76.09364319 C4.97693695 76.11373947 4.13621643 76.13383575 3.27001953 76.15454102 C2.52833527 76.17452652 1.786651 76.19451202 1.02249146 76.21510315 C-0.8125 76.1328125 -0.8125 76.1328125 -2.8125 75.1328125 C-4.2506155 71.44087468 -3.93876877 67.47463874 -3.90234375 63.57421875 C-3.89855209 62.79849014 -3.89476044 62.02276154 -3.89085388 61.223526 C-3.82262058 50.68584553 -3.63775686 40.14894966 -3.44018555 29.61303711 C-3.37402793 26.01748229 -3.31494841 22.42184899 -3.25585938 18.82617188 C-3.21397405 16.5416587 -3.1716725 14.25715311 -3.12890625 11.97265625 C-3.11219376 10.89684799 -3.09548126 9.82103973 -3.07826233 8.71263123 C-3.05831711 7.7297261 -3.03837189 6.74682098 -3.01782227 5.73413086 C-3.00227798 4.86686874 -2.9867337 3.99960663 -2.97071838 3.10606384 C-2.76523891 0.54338664 -2.57071847 0.18837161 0 0 Z " fill="#F6F4F5" transform="translate(890.8125,80.8671875)"/>
<path d="M0 0 C1.52269951 0.00187275 3.04539964 0.00329258 4.56809998 0.00428772 C8.51180788 0.00804562 12.455477 0.01781549 16.39916992 0.0289917 C20.44905066 0.03935339 24.49893786 0.04381644 28.54882812 0.04882812 C36.44793417 0.05944624 44.34700909 0.07643806 52.24609375 0.09765625 C52.24609375 0.42765625 52.24609375 0.75765625 52.24609375 1.09765625 C51.46143234 1.10796371 50.67677094 1.11827118 49.86833191 1.12889099 C42.3836764 1.2278789 34.8990831 1.33051322 27.41453075 1.43699551 C23.56893879 1.49158455 19.72333898 1.54488335 15.87768555 1.5949707 C-4.6996373 1.83293142 -4.6996373 1.83293142 -25.265625 2.5078125 C-26.40303886 2.55088783 -26.40303886 2.55088783 -27.56343079 2.59483337 C-31.60502831 2.72199541 -31.60502831 2.72199541 -34.75390625 5.09765625 C-37.07156354 5.8169292 -39.40486499 6.48864555 -41.75390625 7.09765625 C-42.08390625 8.74765625 -42.41390625 10.39765625 -42.75390625 12.09765625 C-43.66140625 12.30390625 -44.56890625 12.51015625 -45.50390625 12.72265625 C-49.004653 13.84993359 -49.004653 13.84993359 -50.81640625 17.22265625 C-51.45578125 18.17140625 -52.09515625 19.12015625 -52.75390625 20.09765625 C-55.50390625 20.47265625 -55.50390625 20.47265625 -57.75390625 20.09765625 C-60.40557852 27.41438953 -60.40557852 27.41438953 -60.12890625 35.03515625 C-59.7020124 38.52145601 -60.63723271 40.07877239 -62.04337311 43.19575882 C-63.18723037 46.25754306 -63.16540063 49.16795921 -63.20214844 52.41552734 C-63.21394638 53.11100677 -63.22574432 53.80648621 -63.23789978 54.52304077 C-63.27296595 56.80578685 -63.28724578 59.08812667 -63.30078125 61.37109375 C-63.32021281 62.97947529 -63.34076112 64.58784369 -63.36236572 66.19619751 C-63.40464249 69.56680829 -63.43731177 72.93732366 -63.46240234 76.30810547 C-63.49439226 80.57860848 -63.54402146 84.8486576 -63.60032272 89.11890221 C-63.6431696 92.44450055 -63.67936703 95.77014519 -63.71341705 99.09584427 C-63.72969416 100.66714475 -63.74721871 102.23843292 -63.76613617 103.80970383 C-63.85910159 112.02892647 -63.80728948 120.23499543 -63.44238281 128.44775391 C-63.41986324 129.15723364 -63.39734367 129.86671337 -63.37414169 130.59769249 C-63.15249035 134.72287208 -62.51844143 137.02639343 -59.75390625 140.09765625 C-59.0234375 142.45703125 -59.0234375 142.45703125 -58.56640625 144.84765625 C-58.40785156 145.646875 -58.24929687 146.44609375 -58.0859375 147.26953125 C-57.97636719 147.8728125 -57.86679687 148.47609375 -57.75390625 149.09765625 C-55.11390625 148.76765625 -52.47390625 148.43765625 -49.75390625 148.09765625 C-49.75390625 148.75765625 -49.75390625 149.41765625 -49.75390625 150.09765625 C-50.74390625 150.09765625 -51.73390625 150.09765625 -52.75390625 150.09765625 C-52.75390625 151.08765625 -52.75390625 152.07765625 -52.75390625 153.09765625 C-51.43390625 153.42765625 -50.11390625 153.75765625 -48.75390625 154.09765625 C-48.75390625 154.75765625 -48.75390625 155.41765625 -48.75390625 156.09765625 C-47.76390625 156.09765625 -46.77390625 156.09765625 -45.75390625 156.09765625 C-45.75390625 156.75765625 -45.75390625 157.41765625 -45.75390625 158.09765625 C-46.41390625 158.09765625 -47.07390625 158.09765625 -47.75390625 158.09765625 C-44.98109919 161.17855298 -42.69064269 162.78541077 -38.75390625 164.09765625 C-41.75390625 165.09765625 -41.75390625 165.09765625 -43.55078125 164.53125 C-54.66457984 158.86321272 -60.81349007 151.54415931 -64.95703125 139.84375 C-66.63058114 134.07656582 -66.89872211 128.48582816 -66.88330078 122.51293945 C-66.8850531 121.6714183 -66.88680542 120.82989716 -66.88861084 119.96287537 C-66.89299787 117.19137485 -66.89010111 114.41993863 -66.88671875 111.6484375 C-66.88739301 109.71038297 -66.88836405 107.77232853 -66.88961792 105.83427429 C-66.8910909 101.77337844 -66.88895434 97.71250461 -66.88427734 93.65161133 C-66.87859937 88.47157427 -66.88184933 83.29158926 -66.88784981 78.11155415 C-66.8914825 74.10759599 -66.89030411 70.10364993 -66.88772202 66.09969139 C-66.88705923 64.19130637 -66.88785826 62.28292021 -66.89020157 60.37453651 C-66.92460859 24.45803188 -66.92460859 24.45803188 -53.25 10.5703125 C-45.57632119 3.69118354 -35.98901132 0.92760111 -25.86352539 0.47875977 C-25.12616937 0.44109025 -24.38881334 0.40342073 -23.6291132 0.36460972 C-15.75316588 -0.00564891 -7.88281127 -0.02922175 0 0 Z " fill="#2E36BF" transform="translate(90.75390625,27.90234375)"/>
<path d="M0 0 C0.33 0 0.66 0 1 0 C1.02587864 7.62328342 1.04308168 15.24655508 1.05493164 22.86987305 C1.05988443 25.44995547 1.06664846 28.03003522 1.07543945 30.61010742 C1.12093277 44.33035596 1.0748972 58.04617412 0.68359375 71.76171875 C0.66136246 72.8489473 0.63913116 73.93617584 0.6162262 75.05635071 C0.22417319 86.52758721 -2.5060158 96.5611664 -10.83984375 104.82421875 C-15.50460655 108.89725688 -18.57725491 111.28545534 -25 111 C-24.01 110.505 -24.01 110.505 -23 110 C-23.33 108.68 -23.66 107.36 -24 106 C-21.525 105.505 -21.525 105.505 -19 105 C-19 105.66 -19 106.32 -19 107 C-18.34 107 -17.68 107 -17 107 C-16.731875 106.195625 -16.46375 105.39125 -16.1875 104.5625 C-15.795625 103.716875 -15.40375 102.87125 -15 102 C-13.515 101.505 -13.515 101.505 -12 101 C-12 100.34 -12 99.68 -12 99 C-11.01 99 -10.02 99 -9 99 C-9 98.01 -9 97.02 -9 96 C-8.34 96 -7.68 96 -7 96 C-7.33 94.68 -7.66 93.36 -8 92 C-6.515 91.505 -6.515 91.505 -5 91 C-5.3403125 89.948125 -5.3403125 89.948125 -5.6875 88.875 C-6 86 -6 86 -4.5625 83.5 C-2.58789723 79.07688979 -2.84401861 75.77023703 -2.9609375 70.9765625 C-2.99583048 67.42445715 -2.85874273 63.95106995 -2.64916992 60.40917969 C-2.1323707 51.62951363 -1.96791473 42.87900577 -2.00390625 34.0859375 C-2.0074411 33.1190097 -2.01097595 32.15208191 -2.01461792 31.15585327 C-2.03586327 26.22066576 -2.07223634 21.28602231 -2.125 16.35107422 C-2.13695443 14.51009266 -2.14868293 12.66910962 -2.16015625 10.828125 C-2.17365616 9.96762543 -2.18715607 9.10712585 -2.20106506 8.22055054 C-2.20982688 6.14596932 -2.11436049 4.07144532 -2 2 C-1.34 1.34 -0.68 0.68 0 0 Z " fill="#7535DB" transform="translate(192,80)"/>
<path d="M0 0 C0.33 0 0.66 0 1 0 C1.33 30.03 1.66 60.06 2 91 C2.99 91.33 3.98 91.66 5 92 C6.96361202 95.92722404 8.34197179 99.6570138 9 104 C11.64 103.67 14.28 103.34 17 103 C17 103.66 17 104.32 17 105 C16.01 105 15.02 105 14 105 C14 105.99 14 106.98 14 108 C15.32 108.33 16.64 108.66 18 109 C18 109.66 18 110.32 18 111 C18.99 111 19.98 111 21 111 C21 111.66 21 112.32 21 113 C20.34 113 19.68 113 19 113 C21.77280706 116.08089673 24.06326356 117.68775452 28 119 C25 120 25 120 23.203125 119.43359375 C12.08932641 113.76555647 5.94041618 106.44650306 1.796875 94.74609375 C0.12328446 88.97876948 -0.14096494 83.39714529 -0.11352539 77.42431641 C-0.11367142 76.58463318 -0.11381744 75.74494995 -0.1139679 74.87982178 C-0.11327445 72.12037521 -0.10550874 69.36099719 -0.09765625 66.6015625 C-0.09579005 64.68199704 -0.0943671 62.7624311 -0.09336853 60.84286499 C-0.08955925 55.8024564 -0.07974257 50.76207684 -0.06866455 45.72167969 C-0.05841623 40.5735717 -0.05386359 35.42545901 -0.04882812 30.27734375 C-0.03811884 20.18488311 -0.02106154 10.09244397 0 0 Z " fill="#242892" transform="translate(24,73)"/>
<path d="M0 0 C1.32 0.33 2.64 0.66 4 1 C3.34773438 1.71285156 2.69546875 2.42570312 2.0234375 3.16015625 C-6.83728213 11.76452235 -6.83728213 11.76452235 -13 22 C-0.46 22 12.08 22 25 22 C24.19362177 27.64464762 23.134268 32.73886286 21.625 38.1875 C21.41617188 38.98091797 21.20734375 39.77433594 20.9921875 40.59179688 C20.78078125 41.35943359 20.569375 42.12707031 20.3515625 42.91796875 C20.16416504 43.60656982 19.97676758 44.2951709 19.78369141 45.00463867 C19 47 19 47 16 51 C16 46.71 16 42.42 16 38 C17.32 37.34 18.64 36.68 20 36 C21.13848908 33.14218557 21.13848908 33.14218557 21.75 29.875 C21.99234375 28.77929688 22.2346875 27.68359375 22.484375 26.5546875 C22.65453125 25.71164063 22.8246875 24.86859375 23 24 C21.95545654 24.03552979 20.91091309 24.07105957 19.8347168 24.10766602 C15.96037264 24.23800876 12.08582792 24.36117801 8.21118164 24.48217773 C6.5340348 24.53555698 4.85694876 24.59088316 3.17993164 24.64819336 C0.76982734 24.73021822 -1.64040861 24.80524581 -4.05078125 24.87890625 C-4.80087967 24.90594131 -5.55097809 24.93297638 -6.32380676 24.96083069 C-9.52232554 25.05259138 -11.93683252 25.02105583 -15 24 C-16.1875 21.4375 -16.1875 21.4375 -17 19 C-15.71034824 17.62437146 -14.37310707 16.29233607 -13 15 C-12.34 15 -11.68 15 -11 15 C-11 14.34 -11 13.68 -11 13 C-10.01 13 -9.02 13 -8 13 C-7.67 11.02 -7.34 9.04 -7 7 C-5.35 6.67 -3.7 6.34 -2 6 C-2.33 5.01 -2.66 4.02 -3 3 C-2.01 3 -1.02 3 0 3 C0 2.01 0 1.02 0 0 Z " fill="#5347C7" transform="translate(76,101)"/>
<path d="M0 0 C-6.63830767 4.42553845 -14.55735912 4.2905813 -22.30566406 4.24291992 C-23.78788452 4.24576744 -23.78788452 4.24576744 -25.30004883 4.24867249 C-28.53865712 4.25235179 -31.77703693 4.24171862 -35.015625 4.23046875 C-37.27764866 4.22927546 -39.53967282 4.2288241 -41.80169678 4.2290802 C-46.52896248 4.22752037 -51.25615191 4.21926718 -55.98339844 4.20581055 C-62.04168868 4.18878257 -68.09989556 4.18499764 -74.15820694 4.18575573 C-78.82331131 4.18548387 -83.48839747 4.18000076 -88.15349579 4.17275429 C-90.38781344 4.16957404 -92.62213315 4.16760172 -94.85645294 4.16686058 C-97.97497579 4.16469242 -101.09341022 4.15593888 -104.21191406 4.14526367 C-105.59440338 4.14594345 -105.59440338 4.14594345 -107.00482178 4.14663696 C-111.13127903 4.12598322 -114.97662233 4.04603007 -119 3 C-119 2.67 -119 2.34 -119 2 C-117.70009628 2.00444122 -116.40019257 2.00888245 -115.06089783 2.01345825 C-102.80453972 2.05401929 -90.54819526 2.08399164 -78.29178524 2.10362434 C-71.99080035 2.11405703 -65.68986969 2.12820699 -59.38891602 2.15087891 C-53.3070224 2.17262541 -47.22518092 2.1845725 -41.14325142 2.18975449 C-38.82405337 2.19344697 -36.50485813 2.20065746 -34.1856823 2.21146011 C-30.93484223 2.22599885 -27.68421701 2.22797692 -24.43334961 2.22705078 C-22.99835869 2.23783661 -22.99835869 2.23783661 -21.53437805 2.24884033 C-14.08343374 2.22590349 -7.39255243 -0.30173683 0 0 Z " fill="#3B2DAA" transform="translate(171,191)"/>
<path d="M0 0 C1.52269951 0.00187275 3.04539964 0.00329258 4.56809998 0.00428772 C8.51180788 0.00804562 12.455477 0.01781549 16.39916992 0.0289917 C20.44905066 0.03935339 24.49893786 0.04381644 28.54882812 0.04882812 C36.44793417 0.05944624 44.34700909 0.07643806 52.24609375 0.09765625 C52.24609375 0.42765625 52.24609375 0.75765625 52.24609375 1.09765625 C51.46143234 1.10796371 50.67677094 1.11827118 49.86833191 1.12889099 C42.3836764 1.2278789 34.8990831 1.33051322 27.41453075 1.43699551 C23.56893879 1.49158455 19.72333898 1.54488335 15.87768555 1.5949707 C-4.6996373 1.83293142 -4.6996373 1.83293142 -25.265625 2.5078125 C-26.02390091 2.53652939 -26.78217682 2.56524628 -27.56343079 2.59483337 C-31.60502831 2.72199541 -31.60502831 2.72199541 -34.75390625 5.09765625 C-37.07938632 5.79122048 -39.4127107 6.45914837 -41.75390625 7.09765625 C-42.08390625 7.42765625 -42.41390625 7.75765625 -42.75390625 8.09765625 C-44.4200774 8.13829457 -46.0877872 8.14037725 -47.75390625 8.09765625 C-47.75390625 8.75765625 -47.75390625 9.41765625 -47.75390625 10.09765625 C-49.40390625 10.42765625 -51.05390625 10.75765625 -52.75390625 11.09765625 C-47.0425177 4.43436961 -38.47024899 1.60552305 -29.94056702 0.68702698 C-28.5820754 0.60804139 -27.22297628 0.53902134 -25.86352539 0.47875977 C-25.12616937 0.44109025 -24.38881334 0.40342073 -23.6291132 0.36460972 C-15.75316588 -0.00564891 -7.88281127 -0.02922175 0 0 Z " fill="#41349F" transform="translate(90.75390625,27.90234375)"/>
<path d="M0 0 C2.05078125 0.03255208 4.1015625 0.06510417 6.15234375 0.09765625 C4.77734375 2.09765625 4.77734375 2.09765625 3.15234375 4.09765625 C2.49234375 4.09765625 1.83234375 4.09765625 1.15234375 4.09765625 C0.82234375 4.75765625 0.49234375 5.41765625 0.15234375 6.09765625 C-0.17765625 6.09765625 -0.50765625 6.09765625 -0.84765625 6.09765625 C-1.17765625 27.21765625 -1.50765625 48.33765625 -1.84765625 70.09765625 C-2.50765625 70.09765625 -3.16765625 70.09765625 -3.84765625 70.09765625 C-3.9225455 56.61283615 -3.72726919 43.13565049 -3.4753418 29.65332031 C-3.4092623 26.04889396 -3.35015043 22.44438993 -3.29101562 18.83984375 C-3.2491246 16.5507734 -3.20682271 14.26171053 -3.1640625 11.97265625 C-3.14735001 10.89371094 -3.13063751 9.81476563 -3.11341858 8.703125 C-3.09347336 7.71699219 -3.07352814 6.73085937 -3.05297852 5.71484375 C-3.03743423 4.84456543 -3.02188995 3.97428711 -3.00587463 3.07763672 C-2.79890816 0.48761168 -2.60451656 0.13765944 0 0 Z " fill="#E3DFE4" transform="translate(890.84765625,80.90234375)"/>
<path d="M0 0 C0.33 0 0.66 0 1 0 C1 18.81 1 37.62 1 57 C-1.78121292 54.21878708 -1.31173036 52.4397241 -1.4140625 48.54296875 C-1.43356461 47.89158432 -1.45306671 47.24019989 -1.47315979 46.56907654 C-1.53387442 44.44201705 -1.58008411 42.31494743 -1.625 40.1875 C-1.66145767 38.73159781 -1.69832426 37.2757058 -1.7355957 35.81982422 C-1.82402949 32.21220809 -1.8977427 28.60449391 -1.96356201 24.99639893 C-1.99721942 23.15234513 -2.03387512 21.30834671 -2.07080078 19.46435547 C-2.12452177 16.51782699 -2.16154089 13.57188859 -2.1875 10.625 C-2.20055176 9.76543701 -2.21360352 8.90587402 -2.22705078 8.02026367 C-2.2299639 6.01208455 -2.12606504 4.00422041 -2 2 C-1.34 1.34 -0.68 0.68 0 0 Z " fill="#6433B8" transform="translate(192,80)"/>
<path d="M0 0 C3.85568688 0.01038936 7.71138068 0.01483043 11.56707764 0.01983643 C19.07816377 0.03043268 26.5892164 0.04740805 34.10028076 0.06866455 C34.10028076 0.39866455 34.10028076 0.72866455 34.10028076 1.06866455 C27.72539883 1.24004705 21.35039696 1.40623079 14.97528076 1.56866455 C13.56886322 1.60467773 13.56886322 1.60467773 12.1340332 1.64141846 C0.57454393 1.93378053 -10.9767986 2.20210953 -22.54083252 2.03155518 C-27.10654505 1.98124429 -31.37304805 2.36475635 -35.89971924 3.06866455 C-40.9679196 3.31840196 -45.96394387 3.38487132 -50.89971924 2.06866455 C-50.89971924 1.73866455 -50.89971924 1.40866455 -50.89971924 1.06866455 C-33.94420148 -0.17417028 -16.98859205 -0.05074497 0 0 Z " fill="#4B37CC" transform="translate(108.89971923828125,28.93133544921875)"/>
<path d="M0 0 C0.66 0.33 1.32 0.66 2 1 C2 1.66 2 2.32 2 3 C2.99 3.33 3.98 3.66 5 4 C5 7.96 5 11.92 5 16 C3.02 16.33 1.04 16.66 -1 17 C-2 15 -2 15 -2.4375 11.5625 C-2.76028836 7.90657855 -2.76028836 7.90657855 -5 5 C-3.35 3.35 -1.7 1.7 0 0 Z " fill="#FAF8F7" transform="translate(981,139)"/>
<path d="M0 0 C0.886875 0.103125 1.77375 0.20625 2.6875 0.3125 C2.6875 0.6425 2.6875 0.9725 2.6875 1.3125 C1.759375 1.580625 0.83125 1.84875 -0.125 2.125 C-3.07616897 3.2244551 -4.50382029 3.80044485 -6.3125 6.3125 C-6.3125 7.3025 -6.3125 8.2925 -6.3125 9.3125 C-7.3025 9.6425 -8.2925 9.9725 -9.3125 10.3125 C-10.98265575 12.06301835 -10.98265575 12.06301835 -12.5 14.1875 C-13.02980469 14.88617188 -13.55960937 15.58484375 -14.10546875 16.3046875 C-15.5701156 18.3505759 -15.5701156 18.3505759 -15.3125 21.3125 C-16.95040712 22.35894066 -18.62258021 23.3523183 -20.3125 24.3125 C-21.034375 25.034375 -21.75625 25.75625 -22.5 26.5 C-23.3971875 27.3971875 -23.3971875 27.3971875 -24.3125 28.3125 C-24.9725 28.3125 -25.6325 28.3125 -26.3125 28.3125 C-26.3125 19.4025 -26.3125 10.4925 -26.3125 1.3125 C-25.9825 1.3125 -25.6525 1.3125 -25.3125 1.3125 C-24.9825 9.2325 -24.6525 17.1525 -24.3125 25.3125 C-20.02307819 20.30817455 -15.94542504 15.29843275 -12.01367188 10.03125 C-4.75812088 0.44887933 -4.75812088 0.44887933 0 0 Z " fill="#E7E4E7" transform="translate(389.3125,77.6875)"/>
<path d="M0 0 C2.04602312 6.28317737 -0.46827072 13.14537605 -3 19 C-4.18045347 22.6802373 -5.06644642 26.16330594 -5.4375 30 C-5.89847981 34.14881831 -7.03967388 37.30553923 -9 41 C-10.485 41.495 -10.485 41.495 -12 42 C-9.90905426 34.2207205 -7.70645532 26.47908651 -5.4375 18.75 C-4.83186121 16.68234146 -4.22638811 14.61463439 -3.62109375 12.546875 C-3.34120605 11.59103516 -3.06131836 10.63519531 -2.77294922 9.65039062 C-1.83584996 6.43714063 -0.9141119 3.21985683 0 0 Z " fill="#7154D3" transform="translate(129,53)"/>
<path d="M0 0 C0.33 0.99 0.66 1.98 1 3 C0.3503125 3.5259375 0.3503125 3.5259375 -0.3125 4.0625 C-2.26027443 6.0856973 -2.26027443 6.0856973 -3.4375 9.5625 C-5 13 -5 13 -6.9375 14.25 C-7.618125 14.4975 -8.29875 14.745 -9 15 C-11.59826887 16.65344382 -12.88788327 17.80501439 -14.4375 20.5 C-16.26540025 23.4246404 -17.89009561 24.56465951 -21 26 C-21.66 25.67 -22.32 25.34 -23 25 C-22.25556641 24.27296875 -22.25556641 24.27296875 -21.49609375 23.53125 C-17.42933908 19.51851294 -13.53561349 15.4271965 -9.80859375 11.09765625 C-7.75019642 8.71027101 -5.65877914 6.35416937 -3.5625 4 C-2.88316406 3.236875 -2.20382813 2.47375 -1.50390625 1.6875 C-1.00761719 1.130625 -0.51132813 0.57375 0 0 Z " fill="#6847D4" transform="translate(135,126)"/>
<path d="M0 0 C0.0825 0.61875 0.165 1.2375 0.25 1.875 C0.81230192 4.15876964 0.81230192 4.15876964 2.9375 5.25 C4.9474926 6.11391435 4.9474926 6.11391435 7 6 C7 5.34 7 4.68 7 4 C7.66 4 8.32 4 9 4 C9 3.34 9 2.68 9 2 C9.99 2.33 10.98 2.66 12 3 C11.38511719 3.60328125 10.77023438 4.2065625 10.13671875 4.828125 C9.32847656 5.62734375 8.52023438 6.4265625 7.6875 7.25 C6.88699219 8.03890625 6.08648437 8.8278125 5.26171875 9.640625 C2.98886349 11.89069595 2.98886349 11.89069595 1.39453125 14.296875 C0.93433594 14.85890625 0.47414063 15.4209375 0 16 C-0.99 16 -1.98 16 -3 16 C-2.52013969 10.43109483 -1.70084819 5.32932432 0 0 Z " fill="#E9E5FA" transform="translate(89,162)"/>
<path d="M0 0 C1.32 0 2.64 0 4 0 C4 0.66 4 1.32 4 2 C4.99 2 5.98 2 7 2 C7.495 4.475 7.495 4.475 8 7 C6.02 7.66 4.04 8.32 2 9 C2.33 7.68 2.66 6.36 3 5 C-9.54 5 -22.08 5 -35 5 C-35 4.67 -35 4.34 -35 4 C-17.675 3.505 -17.675 3.505 0 3 C0 2.01 0 1.02 0 0 Z " fill="#865FE3" transform="translate(151,98)"/>
<path d="M0 0 C1.04449911 3.13349732 0.93423645 3.98968256 0 7 C-0.66 7 -1.32 7 -2 7 C-1.67 7.99 -1.34 8.98 -1 10 C-2.36182297 13.17758693 -3.54859213 15.54859213 -6 18 C-6.27654388 19.93681136 -6.27654388 19.93681136 -6.1953125 22.1328125 C-6.18886719 22.93847656 -6.18242188 23.74414062 -6.17578125 24.57421875 C-6.15902344 25.41597656 -6.14226563 26.25773437 -6.125 27.125 C-6.11597656 27.97449219 -6.10695313 28.82398438 -6.09765625 29.69921875 C-6.07405647 31.79959884 -6.03818483 33.89983444 -6 36 C-8.56581568 32.15127648 -8.38407209 28.90595994 -8.375 24.4375 C-8.37338867 23.62772705 -8.37177734 22.8179541 -8.37011719 21.98364258 C-8.19254788 13.295803 -6.03369486 6.46467306 0 0 Z " fill="#EAE9EB" transform="translate(945,106)"/>
<path d="M0 0 C0.99 0 1.98 0 3 0 C2.67090065 3.12374628 2.29831983 4.67530242 0.14453125 7.01953125 C-6.2066048 11.9025655 -6.2066048 11.9025655 -10.5625 12.4375 C-11.366875 12.293125 -12.17125 12.14875 -13 12 C-12.34 11.67 -11.68 11.34 -11 11 C-11.33 9.68 -11.66 8.36 -12 7 C-10.35 6.67 -8.7 6.34 -7 6 C-7 6.66 -7 7.32 -7 8 C-6.34 8 -5.68 8 -5 8 C-4.731875 7.195625 -4.46375 6.39125 -4.1875 5.5625 C-3.795625 4.716875 -3.40375 3.87125 -3 3 C-2.01 2.67 -1.02 2.34 0 2 C0 1.34 0 0.68 0 0 Z " fill="#6F2EDE" transform="translate(180,179)"/>
<path d="M0 0 C1.65 0 3.3 0 5 0 C5 1.32 5 2.64 5 4 C3.63875 4.309375 3.63875 4.309375 2.25 4.625 C-1.25074675 5.75227734 -1.25074675 5.75227734 -3.0625 9.125 C-3.701875 10.07375 -4.34125 11.0225 -5 12 C-7.75 12.375 -7.75 12.375 -10 12 C-8.60865582 7.57299578 -6.52115858 5.00586708 -3 2 C-2.01 2 -1.02 2 0 2 C0 1.34 0 0.68 0 0 Z " fill="#363AD9" transform="translate(43,36)"/>
<path d="M0 0 C22.57220832 -0.541733 22.57220832 -0.541733 32 6 C33.9375 8.25 33.9375 8.25 35 10 C31.65750371 9.40312566 29.53563658 8.26396123 27 6 C27 5.34 27 4.68 27 4 C13.635 2.515 13.635 2.515 0 1 C0 0.67 0 0.34 0 0 Z " fill="#6436C9" transform="translate(145,30)"/>
<path d="M0 0 C0.33 0 0.66 0 1 0 C0.31687362 8.47076716 -0.8177738 16.09036506 -6 23 C-6 18.71 -6 14.42 -6 10 C-4.68 9.34 -3.36 8.68 -2 8 C-1.09390008 6.06018382 -1.09390008 6.06018382 -0.75 3.875 C-0.5025 2.59625 -0.255 1.3175 0 0 Z " fill="#5B45D2" transform="translate(98,129)"/>
<path d="M0 0 C0.99 0 1.98 0 3 0 C2.343621 4.48525648 1.29925791 8.66914029 0 13 C-0.33 11.68 -0.66 10.36 -1 9 C-3.97 8.505 -3.97 8.505 -7 8 C-6.02133662 6.85373678 -5.04205413 5.70800212 -4.0625 4.5625 C-3.51722656 3.92441406 -2.97195312 3.28632812 -2.41015625 2.62890625 C-1.63204305 1.73008851 -0.84063472 0.84063472 0 0 Z " fill="#F1E7FD" transform="translate(128,47)"/>
<path d="M0 0 C-8.16741935 5.44494623 -18.64174026 4.23898248 -28.0625 4.125 C-29.51496778 4.11494832 -30.9674423 4.10582635 -32.41992188 4.09765625 C-35.94675682 4.07582017 -39.4733342 4.04141149 -43 4 C-43 3.67 -43 3.34 -43 3 C-42.15816162 2.98018066 -41.31632324 2.96036133 -40.44897461 2.93994141 C-37.29720324 2.86140205 -34.14578745 2.77469505 -30.99438477 2.68261719 C-29.63574737 2.64455921 -28.27701715 2.60966779 -26.91821289 2.578125 C-24.95437081 2.53196786 -22.99084037 2.47311503 -21.02734375 2.4140625 C-19.84906006 2.3826416 -18.67077637 2.3512207 -17.45678711 2.31884766 C-11.36052617 1.75653981 -6.23486782 -0.2544844 0 0 Z " fill="#4B26A9" transform="translate(171,191)"/>
<path d="M0 0 C0.33 0.99 0.66 1.98 1 3 C-1.3125 6.1875 -1.3125 6.1875 -4 9 C-4.66 9 -5.32 9 -6 9 C-6.09152344 9.59296875 -6.18304688 10.1859375 -6.27734375 10.796875 C-7.17232113 13.52534657 -8.33906301 14.47125041 -10.5625 16.25 C-11.20316406 16.77078125 -11.84382812 17.2915625 -12.50390625 17.828125 C-12.99761719 18.21484375 -13.49132812 18.6015625 -14 19 C-14.66 18.67 -15.32 18.34 -16 18 C-15.26394531 17.20335938 -14.52789062 16.40671875 -13.76953125 15.5859375 C-12.78378001 14.5156933 -11.79810712 13.44537693 -10.8125 12.375 C-10.32974609 11.85292969 -9.84699219 11.33085938 -9.34960938 10.79296875 C-6.11982129 7.28138707 -3.02821458 3.68700349 0 0 Z " fill="#714CCF" transform="translate(152,107)"/>
<path d="M0 0 C0.33 0.99 0.66 1.98 1 3 C0.01 4.485 0.01 4.485 -1 6 C-1.66 6 -2.32 6 -3 6 C-3.1546875 6.8971875 -3.1546875 6.8971875 -3.3125 7.8125 C-4.66043471 12.10138316 -8.56628762 14.30871192 -12 17 C-12 12.88522189 -10.31136484 11.61348556 -7.6875 8.5 C-6.48673828 7.06140625 -6.48673828 7.06140625 -5.26171875 5.59375 C-3.56253629 3.64511934 -1.8647922 1.78633816 0 0 Z " fill="#E8E5FB" transform="translate(93,86)"/>
<path d="M0 0 C0.22799082 3.34386531 0.36330932 5.38897977 -1.375 8.3125 C-3 10 -3 10 -5 11 C-6.81502739 7.26317891 -7.33059914 4.99179743 -6 1 C-3.82510133 -0.08744934 -2.41588781 0 0 0 Z " fill="#F0EFEE" transform="translate(1068,114)"/>
<path d="M0 0 C1.07310858 3.27185553 0.89263102 5.42947592 0.0625 8.75 C-0.22947266 9.94882813 -0.22947266 9.94882813 -0.52734375 11.171875 C-0.68332031 11.77515625 -0.83929688 12.3784375 -1 13 C2.76488042 11.27845212 5.15063897 9.00765886 8 6 C8 10 8 10 5.8125 12.25 C2.81045348 14.11794005 1.45274311 14.47954765 -2 14 C-2.33 13.67 -2.66 13.34 -3 13 C-2.94921875 11.07421875 -2.94921875 11.07421875 -2.6875 8.6875 C-2.60886719 7.90761719 -2.53023438 7.12773437 -2.44921875 6.32421875 C-1.98413721 3.91792729 -1.19341444 2.12866168 0 0 Z " fill="#5948C8" transform="translate(87,165)"/>
<path d="M0 0 C0 3.65867041 -0.85543509 4.14058012 -3 7 C-3.7115625 8.7325 -3.7115625 8.7325 -4.4375 10.5 C-5.93411431 13.85241605 -7.25520516 15.63379755 -10 18 C-9.50083524 13.32289462 -8.34684381 10.52420409 -5.5625 6.75 C-4.63630859 5.47382812 -4.63630859 5.47382812 -3.69140625 4.171875 C-2 2 -2 2 0 0 Z " fill="#2F33AF" transform="translate(37,39)"/>
<path d="M0 0 C0.33 1.32 0.66 2.64 1 4 C3.14668494 5.38495802 4.43871412 6 7 6 C7 5.34 7 4.68 7 4 C7.66 4 8.32 4 9 4 C9 3.34 9 2.68 9 2 C9.99 2.33 10.98 2.66 12 3 C9.69 5.31 7.38 7.62 5 10 C4.01 9.34 3.02 8.68 2 8 C0.68 8.33 -0.64 8.66 -2 9 C-1.34 6.03 -0.68 3.06 0 0 Z " fill="#DFD9F9" transform="translate(89,162)"/>
<path d="M0 0 C0.763125 0.20625 1.52625 0.4125 2.3125 0.625 C2.3125 1.615 2.3125 2.605 2.3125 3.625 C0.9925 3.625 -0.3275 3.625 -1.6875 3.625 C-1.6875 4.615 -1.6875 5.605 -1.6875 6.625 C-2.6775 7.12 -2.6775 7.12 -3.6875 7.625 C-4.0175 8.285 -4.3475 8.945 -4.6875 9.625 C-5.6875 8.625 -5.6875 8.625 -5.9375 5.1875 C-5.855 4.011875 -5.7725 2.83625 -5.6875 1.625 C-2.6875 -0.375 -2.6875 -0.375 0 0 Z " fill="#4536DD" transform="translate(77.6875,97.375)"/>
<path d="M0 0 C0.33 0 0.66 0 1 0 C1.02505615 0.7113208 1.0501123 1.4226416 1.07592773 2.15551758 C1.19188439 5.37469517 1.31461245 8.59357985 1.4375 11.8125 C1.47681641 12.93205078 1.51613281 14.05160156 1.55664062 15.20507812 C1.59853516 16.27822266 1.64042969 17.35136719 1.68359375 18.45703125 C1.72025146 19.44678955 1.75690918 20.43654785 1.79467773 21.45629883 C1.90790331 24.1218351 1.90790331 24.1218351 3 27 C2.67 27.66 2.34 28.32 2 29 C1.34 29 0.68 29 0 29 C0 19.43 0 9.86 0 0 Z " fill="#D1CCCD" transform="translate(1009,83)"/>
<path d="M0 0 C2.52943628 0.34888776 3.7961721 0.81127047 5.6875 2.5625 C7.55206656 6.02526646 7.67408728 9.0890474 8 13 C5.08772731 9.71195019 3.50298788 7.40114397 3 3 C2.01 2.67 1.02 2.34 0 2 C0 1.34 0 0.68 0 0 Z " fill="#7135D5" transform="translate(180,42)"/>
<path d="M0 0 C-0.56589844 0.20496094 -1.13179687 0.40992188 -1.71484375 0.62109375 C-2.44832031 0.89050781 -3.18179688 1.15992188 -3.9375 1.4375 C-4.66839844 1.70433594 -5.39929688 1.97117188 -6.15234375 2.24609375 C-7.98305678 2.85386948 -7.98305678 2.85386948 -9 4 C-10.66617115 4.04063832 -12.33388095 4.042721 -14 4 C-14 4.66 -14 5.32 -14 6 C-15.65 6.33 -17.3 6.66 -19 7 C-14.62862668 2.12423745 -6.69100515 -3.34550257 0 0 Z " fill="#3737B4" transform="translate(57,32)"/>
<path d="M0 0 C0.99 0.33 1.98 0.66 3 1 C-0.3 4.96 -3.6 8.92 -7 13 C-7.33 12.01 -7.66 11.02 -8 10 C-7.34 9.34 -6.68 8.68 -6 8 C-5.87625 7.34 -5.7525 6.68 -5.625 6 C-5 4 -5 4 -3 2.875 C-2.34 2.58625 -1.68 2.2975 -1 2 C-0.67 1.34 -0.34 0.68 0 0 Z " fill="#5646C6" transform="translate(88,88)"/>
<path d="M0 0 C0.33 0 0.66 0 1 0 C1 4.62 1 9.24 1 14 C0.01 14.33 -0.98 14.66 -2 15 C-3.18024637 10.86913771 -2.74072356 8.86827457 -1 5 C-0.63128912 3.34080104 -0.28718326 1.6752357 0 0 Z " fill="#E5E3E5" transform="translate(643,110)"/>
<path d="M0 0 C0 0.66 0 1.32 0 2 C-0.99 2 -1.98 2 -3 2 C-3 2.99 -3 3.98 -3 5 C-2.01 5.33 -1.02 5.66 0 6 C-3 7 -3 7 -6 6 C-7.1875 3.4375 -7.1875 3.4375 -8 1 C-5.07175348 0.02391783 -3.04386724 -0.08226668 0 0 Z " fill="#3038D2" transform="translate(41,176)"/>
<path d="M0 0 C0.66 0.33 1.32 0.66 2 1 C-0.50123051 5.16871752 -2.49415979 7.98422938 -7 10 C-7.66 9.67 -8.32 9.34 -9 9 C-6.03 6.03 -3.06 3.06 0 0 Z " fill="#5E42CC" transform="translate(121,142)"/>
<path d="M0 0 C4.5929708 3.52127761 5.11941917 7.57747597 6 13 C4.04296875 12.140625 4.04296875 12.140625 2 11 C1.3125 8.75 1.3125 8.75 1 6 C0.814375 4.906875 0.62875 3.81375 0.4375 2.6875 C0.293125 1.800625 0.14875 0.91375 0 0 Z " fill="#2C34CA" transform="translate(27,164)"/>
<path d="M0 0 C2.31 0.33 4.62 0.66 7 1 C7 3.31 7 5.62 7 8 C6.34 8 5.68 8 5 8 C5.33 6.02 5.66 4.04 6 2 C4.8553125 2.7425 4.8553125 2.7425 3.6875 3.5 C1 5 1 5 -2 5 C-2 4.34 -2 3.68 -2 3 C-1.34 3 -0.68 3 0 3 C0 2.01 0 1.02 0 0 Z " fill="#6A49D7" transform="translate(125,45)"/>
<path d="M0 0 C-0.33 1.65 -0.66 3.3 -1 5 C-3.31 4.67 -5.62 4.34 -8 4 C-7.67 3.01 -7.34 2.02 -7 1 C-4.53721199 -0.231394 -2.7204945 -0.07159196 0 0 Z " fill="#6130F4" transform="translate(136,41)"/>
<path d="M0 0 C0.99 0.66 1.98 1.32 3 2 C2.34 4.64 1.68 7.28 1 10 C-1.97 10 -4.94 10 -8 10 C-7.67 9.01 -7.34 8.02 -7 7 C-7 7.66 -7 8.32 -7 9 C-4.69 9 -2.38 9 0 9 C0 6.03 0 3.06 0 0 Z " fill="#D4CED2" transform="translate(1009,146)"/>
<path d="M0 0 C1.5 1.0625 1.5 1.0625 3 3 C3.1875 6.6875 3.1875 6.6875 3 10 C2.01 9.67 1.02 9.34 0 9 C0 7.35 0 5.7 0 4 C-0.66 3.67 -1.32 3.34 -2 3 C-1.34 2.01 -0.68 1.02 0 0 Z " fill="#DBD6D7" transform="translate(977,146)"/>
<path d="M0 0 C1.32 1.32 2.64 2.64 4 4 C3.01 4.495 3.01 4.495 2 5 C2 5.66 2 6.32 2 7 C1.01 7.33 0.02 7.66 -1 8 C-1.66 6.02 -2.32 4.04 -3 2 C-2.01 1.34 -1.02 0.68 0 0 Z " fill="#EEECEB" transform="translate(1013,143)"/>
<path d="M0 0 C0.66 0 1.32 0 2 0 C1.52060632 4.71403788 1.03165952 8.66579301 -1 13 C-1.68707555 10.50935112 -2 8.62113708 -2 6 C-1.34 6 -0.68 6 0 6 C0 5.34 0 4.68 0 4 C-0.66 3.67 -1.32 3.34 -2 3 C-1.34 2.01 -0.68 1.02 0 0 Z " fill="#EEE2FD" transform="translate(125,60)"/>
<path d="M0 0 C3.2633229 0.26459375 4.77771844 0.8137641 7.3125 2.9375 C9 5 9 5 9 7 C6.03 6.505 6.03 6.505 3 6 C2.896875 5.360625 2.79375 4.72125 2.6875 4.0625 C2.460625 3.381875 2.23375 2.70125 2 2 C1.01 1.67 0.02 1.34 -1 1 C-0.67 0.67 -0.34 0.34 0 0 Z " fill="#7332ED" transform="translate(167,33)"/>
<path d="M0 0 C0.6875 1.6875 0.6875 1.6875 1 4 C-0.25 6.75 -0.25 6.75 -2 9 C-2.99 9 -3.98 9 -5 9 C-4.42647107 5.12867972 -2.51295648 2.91827204 0 0 Z " fill="#4835E1" transform="translate(87,161)"/>
<path d="M0 0 C0.33 0.99 0.66 1.98 1 3 C-3.49344368 7.64322514 -7.86698764 7.76182476 -14 8 C-14 7.67 -14 7.34 -14 7 C-12.98679687 6.74476563 -12.98679687 6.74476563 -11.953125 6.484375 C-5.11888033 4.69961407 -5.11888033 4.69961407 0 0 Z " fill="#E1E0E3" transform="translate(1037,142)"/>
<path d="M0 0 C2.0625 2.3125 2.0625 2.3125 4 5 C3.67 5.99 3.34 6.98 3 8 C2.34 8 1.68 8 1 8 C1 7.34 1 6.68 1 6 C0.34 6 -0.32 6 -1 6 C-1.625 4.125 -1.625 4.125 -2 2 C-1.34 1.34 -0.68 0.68 0 0 Z " fill="#F4F4F3" transform="translate(644,125)"/>
<path d="M0 0 C0.66 0.99 1.32 1.98 2 3 C0.75 4.5625 0.75 4.5625 -1 6 C-3.1875 5.6875 -3.1875 5.6875 -5 5 C-4 2 -4 2 -1.9375 0.8125 C-1.298125 0.544375 -0.65875 0.27625 0 0 Z " fill="#6430EF" transform="translate(150,114)"/>
<path d="M0 0 C2.67927341 4.01891012 2.15601248 6.24161923 2 11 C1.34 10.01 0.68 9.02 0 8 C-0.99 7.67 -1.98 7.34 -3 7 C-2.01 4.69 -1.02 2.38 0 0 Z " fill="#ECEBEB" transform="translate(603,91)"/>
<path d="M0 0 C0.66 0 1.32 0 2 0 C0.33248852 3.94139078 -2.22710649 6.7892812 -5 10 C-5.33 9.34 -5.66 8.68 -6 8 C-2.25 2.25 -2.25 2.25 0 0 Z " fill="#ECEAEE" transform="translate(253,83)"/>
<path d="M0 0 C0.33 0.99 0.66 1.98 1 3 C-2.75 6 -2.75 6 -5 6 C-5 6.66 -5 7.32 -5 8 C-6.32 7.67 -7.64 7.34 -9 7 C-8.195625 6.731875 -7.39125 6.46375 -6.5625 6.1875 C-5.716875 5.795625 -4.87125 5.40375 -4 5 C-3.67 4.01 -3.34 3.02 -3 2 C-2.01 1.34 -1.02 0.68 0 0 Z " fill="#EBE9EC" transform="translate(977,140)"/>
<path d="M0 0 C0.99 0.33 1.98 0.66 3 1 C3 2.32 3 3.64 3 5 C3.66 5.33 4.32 5.66 5 6 C2.625 5.75 2.625 5.75 0 5 C-1.3125 2.9375 -1.3125 2.9375 -2 1 C-1.34 0.67 -0.68 0.34 0 0 Z " fill="#3938D7" transform="translate(45,185)"/>
<path d="M0 0 C0.33 0.66 0.66 1.32 1 2 C-0.98 4.97 -2.96 7.94 -5 11 C-5.99 10.34 -6.98 9.68 -8 9 C-5.36 6.03 -2.72 3.06 0 0 Z " fill="#634CC6" transform="translate(111,152)"/>
<path d="M0 0 C0.99 0.33 1.98 0.66 3 1 C2.7452486 2.31571603 2.47065859 3.62760376 2.1875 4.9375 C2.03667969 5.66839844 1.88585937 6.39929687 1.73046875 7.15234375 C1.48941406 7.76207031 1.24835938 8.37179688 1 9 C0.01 9.33 -0.98 9.66 -2 10 C-2 9.01 -2 8.02 -2 7 C-1.34 7 -0.68 7 0 7 C0 4.69 0 2.38 0 0 Z " fill="#5F33E0" transform="translate(132,46)"/>
<path d="M0 0 C-3.57631229 2.38420819 -5.98310739 3.13142447 -10.1875 3.0625 C-12.0746875 3.0315625 -12.0746875 3.0315625 -14 3 C-14 2.67 -14 2.34 -14 2 C-9.126739 0.4087311 -5.19209404 -0.21192221 0 0 Z " fill="#5827BD" transform="translate(171,191)"/>
<path d="M0 0 C0.99 0 1.98 0 3 0 C1.60667426 3.36720387 0.0210714 4.9859524 -3 7 C-2.67 5.35 -2.34 3.7 -2 2 C-1.34 2 -0.68 2 0 2 C0 1.34 0 0.68 0 0 Z " fill="#5D42CB" transform="translate(115,57)"/>
<path d="M0 0 C0.33 0.66 0.66 1.32 1 2 C-0.98 4.31 -2.96 6.62 -5 9 C-5.66 8.67 -6.32 8.34 -7 8 C-4.69 5.36 -2.38 2.72 0 0 Z " fill="#DDD4FB" transform="translate(105,72)"/>
<path d="M0 0 C0.33 0.66 0.66 1.32 1 2 C-0.30406884 4.01920337 -1.63823419 6.01924973 -3 8 C-3.33 8 -3.66 8 -4 8 C-4 6.02 -4 4.04 -4 2 C-3.01 2.33 -2.02 2.66 -1 3 C-0.67 2.01 -0.34 1.02 0 0 Z " fill="#6C38BD" transform="translate(187,174)"/>
<path d="M0 0 C0.625 1.8125 0.625 1.8125 1 4 C0.01 5.485 0.01 5.485 -1 7 C-1.66 6.67 -2.32 6.34 -3 6 C-2.625 3.5625 -2.625 3.5625 -2 1 C-1.34 0.67 -0.68 0.34 0 0 Z " fill="#7D32E8" transform="translate(187,170)"/>
<path d="M0 0 C0.66 0.33 1.32 0.66 2 1 C0.60667426 4.36720387 -0.9789286 5.9859524 -4 8 C-4 7.01 -4 6.02 -4 5 C-3.34 5 -2.68 5 -2 5 C-2 4.34 -2 3.68 -2 3 C-1.34 3 -0.68 3 0 3 C0 2.01 0 1.02 0 0 Z " fill="#E7DDFD" transform="translate(119,140)"/>
<path d="M0 0 C0.33 0.99 0.66 1.98 1 3 C-0.65 4.65 -2.3 6.3 -4 8 C-4.66 7.67 -5.32 7.34 -6 7 C-4.02 4.69 -2.04 2.38 0 0 Z " fill="#E2E0FC" transform="translate(70,112)"/>
<path d="M0 0 C0.99 0 1.98 0 3 0 C2.67 1.98 2.34 3.96 2 6 C1.34 6 0.68 6 0 6 C-0.38218767 4.34385343 -0.71395102 2.67542976 -1 1 C-0.67 0.67 -0.34 0.34 0 0 Z " fill="#EADAFD" transform="translate(128,47)"/>
</svg>
